<svg width="14" height="14" viewBox="0 0 14 14" fill="none" xmlns="http://www.w3.org/2000/svg">
<rect y="1.07692" width="14" height="1.07692" rx="0.538462" fill="#F8E71C"/>
<rect x="5.38464" width="3.23077" height="1.07692" fill="#F8E71C"/>
<mask id="path-3-inside-1" fill="white">
<path d="M1.32092 5.44945C1.20701 4.41389 1.15005 3.89611 1.44813 3.56344C1.74622 3.23077 2.26712 3.23077 3.30893 3.23077H10.691C11.7328 3.23077 12.2537 3.23077 12.5517 3.56344C12.8498 3.89611 12.7929 4.41389 12.679 5.44945L11.9343 12.2187C11.8412 13.0659 11.7946 13.4895 11.5097 13.7448C11.2248 14 10.7987 14 9.94634 14H4.05354C3.20121 14 2.77504 14 2.49018 13.7448C2.20533 13.4895 2.15873 13.0659 2.06554 12.2187L1.32092 5.44945Z"/>
</mask>
<path d="M2.06554 12.2187L1.07153 12.328L2.06554 12.2187ZM2.49018 13.7448L3.15751 13L2.49018 13.7448ZM11.9343 12.2187L12.9284 12.328L11.9343 12.2187ZM11.5097 13.7448L10.8424 13L11.5097 13.7448ZM12.679 5.44945L11.685 5.34011L12.679 5.44945ZM12.5517 3.56344L13.2965 2.89611L12.5517 3.56344ZM1.32092 5.44945L2.31492 5.34011L1.32092 5.44945ZM1.44813 3.56344L0.703373 2.89611L1.44813 3.56344ZM3.30893 4.23077H10.691V2.23077H3.30893V4.23077ZM11.685 5.34011L10.9403 12.1093L12.9284 12.328L13.673 5.5588L11.685 5.34011ZM9.94634 13H4.05354V15H9.94634V13ZM3.05954 12.1093L2.31492 5.34011L0.326915 5.55879L1.07153 12.328L3.05954 12.1093ZM4.05354 13C3.6008 13 3.35663 12.9981 3.1863 12.9762C3.04421 12.958 3.09112 12.9405 3.15751 13L1.82285 14.4895C2.1741 14.8043 2.57652 14.9144 2.93181 14.96C3.25886 15.0019 3.65395 15 4.05354 15V13ZM1.07153 12.328C1.11522 12.7252 1.15651 13.1182 1.23398 13.4387C1.31813 13.7868 1.4716 14.1748 1.82285 14.4895L3.15751 13C3.22391 13.0595 3.21165 13.108 3.178 12.9688C3.13765 12.8019 3.10904 12.5594 3.05954 12.1093L1.07153 12.328ZM10.9403 12.1093C10.8908 12.5594 10.8622 12.8019 10.8219 12.9688C10.7882 13.108 10.776 13.0595 10.8424 13L12.177 14.4895C12.5283 14.1748 12.6818 13.7868 12.7659 13.4387C12.8434 13.1182 12.8847 12.7252 12.9284 12.328L10.9403 12.1093ZM9.94634 15C10.3459 15 10.741 15.0019 11.0681 14.96C11.4234 14.9144 11.8258 14.8043 12.177 14.4895L10.8424 13C10.9088 12.9405 10.9557 12.958 10.8136 12.9762C10.6433 12.9981 10.3991 13 9.94634 13V15ZM10.691 4.23077C11.2417 4.23077 11.5495 4.23308 11.7619 4.26274C11.9459 4.28845 11.8811 4.31349 11.807 4.23077L13.2965 2.89611C12.9243 2.48073 12.45 2.33944 12.0386 2.28197C11.6555 2.22847 11.182 2.23077 10.691 2.23077V4.23077ZM13.673 5.5588C13.7267 5.07067 13.7807 4.60025 13.7694 4.21365C13.7573 3.79842 13.6687 3.3115 13.2965 2.89611L11.807 4.23077C11.7329 4.14806 11.7649 4.08636 11.7703 4.27208C11.7765 4.48643 11.7452 4.79268 11.685 5.34011L13.673 5.5588ZM3.30893 2.23077C2.81785 2.23077 2.34435 2.22847 1.9613 2.28197C1.54989 2.33944 1.07557 2.48073 0.703373 2.89611L2.1929 4.23077C2.11878 4.31349 2.05395 4.28845 2.23797 4.26274C2.45035 4.23308 2.7582 4.23077 3.30893 4.23077V2.23077ZM2.31492 5.34011C2.25471 4.79268 2.22334 4.48643 2.2296 4.27208C2.23503 4.08636 2.26701 4.14806 2.1929 4.23077L0.703373 2.89611C0.331175 3.3115 0.242593 3.79842 0.230456 4.21365C0.219157 4.60025 0.273221 5.07066 0.326915 5.55879L2.31492 5.34011Z" fill="#F8E71C" mask="url(#path-3-inside-1)"/>
<rect x="6.46094" y="6.46094" width="1" height="4" fill="#F8E71C"/>
<rect x="8.69238" y="6.46094" width="1" height="4" fill="#F8E71C"/>
<rect x="4.23047" y="6.46094" width="1" height="4" fill="#F8E71C"/>
</svg>
