<?xml version="1.0" encoding="UTF-8"?>
<svg width="34px" height="34px" viewBox="0 0 34 34" version="1.1" xmlns="http://www.w3.org/2000/svg" xmlns:xlink="http://www.w3.org/1999/xlink">
    <!-- Generator: Sketch 51.2 (57519) - http://www.bohemiancoding.com/sketch -->
    <title>info</title>
    <desc>Created with Sketch.</desc>
    <defs>
        <filter id="shadow">
            <feDropShadow dx="0" dy="1.2" stdDeviation="0.5" flood-opacity="0.7"/>
        </filter>
    </defs>
    <g id="Page-1" stroke="none" stroke-width="1" fill="none" fill-rule="evenodd">
        <g id="info" transform="translate(1.000000, 1.000000)" fill-rule="nonzero">
            <circle id="Oval" cx="16" cy="16" r="16" style="filter:url(#shadow);"/>
            <path d="M17.9931487,6 C18.5574243,6 19.0307276,6.19501001 19.4129556,6.58503003 C19.8043529,6.97505005 20,7.44669644 20,7.99997947 C20,8.55326249 19.8043529,9.02490888 19.4129556,9.4149597 C19.0216613,9.80491812 18.548358,10 17.9931487,10 C17.4471088,10 16.9783387,9.80491812 16.5870444,9.4149597 C16.1956471,9.02490888 16,8.55326249 16,7.99997947 C16,7.44669644 16.191114,6.97505005 16.5733419,6.58503003 C16.9647392,6.19501001 17.4380425,6 17.9931487,6 Z M19,12 L16.0165681,21.6785517 C15.8517188,22.2321606 15.7692392,22.5951038 15.7692392,22.7675865 C15.7692392,22.8673368 15.8128403,22.9626697 15.9001522,23.0533798 C15.9874641,23.1350497 16.0797182,23.175936 16.1766949,23.175936 C16.341654,23.175936 16.5066131,23.1078264 16.6714624,22.9717099 C17.1081319,22.6359901 17.6320034,22.0279345 18.2431868,21.1476459 L18.7380642,21.4198789 C17.2729812,23.8065921 15.7158636,25 14.066492,25 C13.4358693,25 12.931437,24.8366602 12.5529755,24.5099806 C12.1842886,24.174158 12,23.7521455 12,23.2439429 C12,22.9082231 12.0824796,22.4816905 12.2474387,21.9644477 L14.2702198,15.4575648 C14.4642829,14.8314289 14.5613694,14.3594898 14.5613694,14.0418504 C14.5613694,13.8422471 14.4691153,13.6652443 14.2848267,13.5110474 C14.1004283,13.3567477 13.8482671,13.2795979 13.5280136,13.2795979 C13.3824937,13.2795979 13.2078698,13.284118 13.004142,13.2931582 L13.1933728,12.7486922 L18.1267709,12 L19,12 Z" id="Shape" fill="#ffffff"></path>
        </g>
    </g>
</svg>