<svg width="40" height="40" viewBox="0 0 40 40" fill="none" xmlns="http://www.w3.org/2000/svg">
<path fill-rule="evenodd" clip-rule="evenodd" d="M10.5521 4C10.2811 4 10.0213 4.11572 9.82959 4.32173L1.29985 13.4888C0.900029 13.9185 0.900051 14.6157 1.2999 15.0454L5.2819 19.3243C5.68108 19.7533 6.32775 19.7532 6.72687 19.3242L8.38407 17.5429C9.02825 16.8504 10.1289 17.3413 10.1289 18.3211V34.6429C10.1289 35.9447 11.111 37 12.3225 37H27.6775C28.889 37 29.871 35.9447 29.871 34.6429V18.3211C29.871 17.3413 30.9717 16.8504 31.6159 17.5429L33.2731 19.3242C33.6722 19.7532 34.3189 19.7533 34.7181 19.3243L38.7001 15.0454C39.0999 14.6157 39.1 13.9185 38.7001 13.4888L30.1704 4.32173C29.9787 4.11572 29.7189 4 29.4479 4H10.5521ZM20 8.63571C21.3579 8.63571 22.6368 8.34863 23.6957 7.83879C24.7402 7.33586 25.6523 6.57403 26.1415 5.56486C26.2289 5.38461 26.3307 5.24516 26.4199 5.16338C26.4704 5.11707 26.5001 5.10345 26.5106 5.1H29.4479L37.9777 14.2671L33.9957 18.546L32.3385 16.7647C31.0501 15.3798 28.8487 16.3616 28.8487 18.3211V34.6429C28.8487 35.3358 28.3256 35.9 27.6775 35.9H12.3225C11.6744 35.9 11.1513 35.3358 11.1513 34.6429V18.3211C11.1513 16.3616 8.94988 15.3798 7.66152 16.7647L6.00433 18.546L2.02233 14.2671L10.5521 5.1L13.4894 5.1C13.4999 5.10345 13.5296 5.11707 13.5801 5.16338C13.6693 5.24516 13.7711 5.38461 13.8585 5.56486C14.3477 6.57403 15.2598 7.33586 16.3043 7.83879C17.3632 8.34863 18.6421 8.63571 20 8.63571ZM14.7867 5.1C15.504 6.51415 17.567 7.53571 20 7.53571C22.433 7.53571 24.496 6.51415 25.2133 5.1H14.7867Z" fill="white"/>
</svg>
