<svg width="20" height="20" viewBox="0 0 20 20" fill="none" xmlns="http://www.w3.org/2000/svg">
<g clip-path="url(#clip0)">
<path d="M5.99063 9.11563C5.81595 9.2905 5.69704 9.51323 5.64892 9.75567C5.6008 9.99811 5.62563 10.2494 5.72028 10.4777C5.81493 10.706 5.97515 10.9012 6.18068 11.0385C6.38621 11.1757 6.62783 11.249 6.875 11.249C7.12217 11.249 7.36379 11.1757 7.56932 11.0385C7.77485 10.9012 7.93507 10.706 8.02972 10.4777C8.12437 10.2494 8.1492 9.99811 8.10108 9.75567C8.05296 9.51323 7.93405 9.2905 7.75938 9.11563C7.64328 8.99941 7.50542 8.90721 7.35368 8.84431C7.20193 8.7814 7.03927 8.74902 6.875 8.74902C6.71073 8.74902 6.54807 8.7814 6.39633 8.84431C6.24458 8.90721 6.10672 8.99941 5.99063 9.11563ZM7.31719 10.4422C7.22975 10.5295 7.11839 10.589 6.99717 10.6131C6.87595 10.6371 6.75032 10.6247 6.63615 10.5774C6.52199 10.53 6.42442 10.4499 6.35578 10.3472C6.28713 10.2444 6.25049 10.1236 6.25049 10C6.25049 9.87642 6.28713 9.75561 6.35578 9.65285C6.42442 9.55008 6.52199 9.46997 6.63615 9.42265C6.75032 9.37532 6.87595 9.36291 6.99717 9.38697C7.11839 9.41103 7.22975 9.47048 7.31719 9.55782C7.3753 9.61587 7.4214 9.6848 7.45285 9.76067C7.4843 9.83654 7.50049 9.91787 7.50049 10C7.50049 10.0821 7.4843 10.1635 7.45285 10.2393C7.4214 10.3152 7.3753 10.3842 7.31719 10.4422Z" fill="#A02733" stroke="#A02733" stroke-width="0.5"/>
<path d="M9.11563 5.99063C8.94095 6.1655 8.82204 6.38823 8.77392 6.63067C8.7258 6.87311 8.75063 7.12437 8.84528 7.3527C8.93993 7.58103 9.10015 7.77617 9.30568 7.91346C9.51121 8.05075 9.75283 8.12402 10 8.12402C10.2472 8.12402 10.4888 8.05075 10.6943 7.91346C10.8998 7.77617 11.0601 7.58103 11.1547 7.3527C11.2494 7.12437 11.2742 6.87311 11.2261 6.63067C11.178 6.38823 11.0591 6.1655 10.8844 5.99063C10.7683 5.87441 10.6304 5.78221 10.4787 5.71931C10.3269 5.6564 10.1643 5.62402 10 5.62402C9.83573 5.62402 9.67307 5.6564 9.52132 5.71931C9.36958 5.78221 9.23172 5.87441 9.11563 5.99063ZM10.4422 7.3172C10.3548 7.40453 10.2434 7.46399 10.1222 7.48805C10.0009 7.51211 9.87532 7.49969 9.76115 7.45237C9.64699 7.40504 9.54942 7.32493 9.48078 7.22217C9.41213 7.1194 9.37549 6.99859 9.37549 6.87501C9.37549 6.75142 9.41213 6.63061 9.48078 6.52785C9.54942 6.42508 9.64699 6.34497 9.76115 6.29765C9.87532 6.25032 10.0009 6.23791 10.1222 6.26197C10.2434 6.28602 10.3548 6.34548 10.4422 6.43282C10.5003 6.49086 10.5464 6.5598 10.5779 6.63567C10.6093 6.71154 10.6255 6.79287 10.6255 6.87501C10.6255 6.95714 10.6093 7.03847 10.5779 7.11434C10.5464 7.19022 10.5003 7.25915 10.4422 7.3172Z" fill="#A02733" stroke="#A02733" stroke-width="0.5"/>
<path d="M12.2406 9.11563C12.0659 9.2905 11.947 9.51323 11.8989 9.75567C11.8508 9.99811 11.8756 10.2494 11.9703 10.4777C12.0649 10.706 12.2252 10.9012 12.4307 11.0385C12.6362 11.1757 12.8778 11.249 13.125 11.249C13.3722 11.249 13.6138 11.1757 13.8193 11.0385C14.0248 10.9012 14.1851 10.706 14.2797 10.4777C14.3744 10.2494 14.3992 9.99811 14.3511 9.75567C14.303 9.51323 14.1841 9.2905 14.0094 9.11563C13.8933 8.99941 13.7554 8.90721 13.6037 8.84431C13.4519 8.7814 13.2893 8.74902 13.125 8.74902C12.9607 8.74902 12.7981 8.7814 12.6463 8.84431C12.4946 8.90721 12.3567 8.99941 12.2406 9.11563ZM13.5672 10.4422C13.4798 10.5295 13.3684 10.589 13.2472 10.6131C13.1259 10.6371 13.0003 10.6247 12.8862 10.5774C12.772 10.53 12.6744 10.4499 12.6058 10.3472C12.5371 10.2444 12.5005 10.1236 12.5005 10C12.5005 9.87642 12.5371 9.75561 12.6058 9.65285C12.6744 9.55008 12.772 9.46997 12.8862 9.42265C13.0003 9.37532 13.1259 9.36291 13.2472 9.38697C13.3684 9.41103 13.4798 9.47048 13.5672 9.55782C13.6253 9.61587 13.6714 9.6848 13.7029 9.76067C13.7343 9.83654 13.7505 9.91787 13.7505 10C13.7505 10.0821 13.7343 10.1635 13.7029 10.2393C13.6714 10.3152 13.6253 10.3842 13.5672 10.4422Z" fill="#A02733" stroke="#A02733" stroke-width="0.5"/>
<path d="M9.11563 12.2406C8.94095 12.4155 8.82204 12.6382 8.77392 12.8807C8.7258 13.1231 8.75063 13.3744 8.84528 13.6027C8.93993 13.831 9.10015 14.0262 9.30568 14.1635C9.51121 14.3007 9.75283 14.374 10 14.374C10.2472 14.374 10.4888 14.3007 10.6943 14.1635C10.8998 14.0262 11.0601 13.831 11.1547 13.6027C11.2494 13.3744 11.2742 13.1231 11.2261 12.8807C11.178 12.6382 11.0591 12.4155 10.8844 12.2406C10.7683 12.1244 10.6304 12.0322 10.4787 11.9693C10.3269 11.9064 10.1643 11.874 10 11.874C9.83573 11.874 9.67307 11.9064 9.52132 11.9693C9.36958 12.0322 9.23172 12.1244 9.11563 12.2406ZM10.4422 13.5672C10.3548 13.6545 10.2434 13.714 10.1222 13.738C10.0009 13.7621 9.87532 13.7497 9.76115 13.7024C9.64699 13.655 9.54942 13.5749 9.48078 13.4722C9.41213 13.3694 9.37549 13.2486 9.37549 13.125C9.37549 13.0014 9.41213 12.8806 9.48078 12.7778C9.54942 12.6751 9.64699 12.595 9.76115 12.5476C9.87532 12.5003 10.0009 12.4879 10.1222 12.512C10.2434 12.536 10.3548 12.5955 10.4422 12.6828C10.5003 12.7409 10.5464 12.8098 10.5779 12.8857C10.6093 12.9615 10.6255 13.0429 10.6255 13.125C10.6255 13.2071 10.6093 13.2885 10.5779 13.3643C10.5464 13.4402 10.5003 13.5091 10.4422 13.5672Z" fill="#A02733" stroke="#A02733" stroke-width="0.5"/>
<path d="M19.6875 8.4375C19.6046 8.4375 19.5251 8.47042 19.4665 8.52903C19.4079 8.58763 19.375 8.66712 19.375 8.75V9.6875H17.9281C17.8272 9.35554 17.6686 9.04399 17.4594 8.76719C17.3057 8.56371 17.1835 8.33827 17.0969 8.09844C17.0488 7.8371 17.0409 7.56997 17.0734 7.30625C17.1016 6.86406 17.1313 6.40781 16.9031 6.01406C16.675 5.62031 16.2594 5.4125 15.8594 5.21563C15.7125 5.14219 15.5719 5.07188 15.4469 4.99531L16.8531 3.58906L17.5156 4.25156C17.5447 4.28081 17.5793 4.30401 17.6173 4.31983C17.6554 4.33565 17.6963 4.34378 17.7375 4.34375C17.7994 4.3438 17.86 4.32544 17.9115 4.29101C17.963 4.25658 18.0031 4.20762 18.0267 4.15036C18.0503 4.0931 18.0563 4.03012 18.0441 3.9694C18.0318 3.90869 18.0018 3.85299 17.9578 3.80937L17.075 2.92656L16.1922 2.04375C16.1335 1.98511 16.054 1.95217 15.9711 1.95217C15.8882 1.95217 15.8086 1.98511 15.75 2.04375C15.6914 2.10239 15.6584 2.18192 15.6584 2.26484C15.6584 2.34777 15.6914 2.4273 15.75 2.48594L16.4062 3.15L15 4.55625C14.9234 4.43125 14.8531 4.29063 14.7812 4.14531C14.5828 3.74375 14.3797 3.32969 13.9813 3.1C13.5828 2.87031 13.1312 2.90156 12.6891 2.92969C12.4253 2.96213 12.1582 2.95423 11.8969 2.90625C11.657 2.81964 11.4316 2.69744 11.2281 2.54375C10.9513 2.33457 10.6398 2.17588 10.3078 2.075V0.625H11.2453C11.3282 0.625 11.4077 0.592076 11.4663 0.533471C11.5249 0.474866 11.5578 0.39538 11.5578 0.3125C11.5578 0.22962 11.5249 0.150134 11.4663 0.0915291C11.4077 0.032924 11.3282 0 11.2453 0L8.75 0C8.66712 0 8.58763 0.032924 8.52903 0.0915291C8.47042 0.150134 8.4375 0.22962 8.4375 0.3125C8.4375 0.39538 8.47042 0.474866 8.52903 0.533471C8.58763 0.592076 8.66712 0.625 8.75 0.625H9.6875V2.07188C9.35554 2.17276 9.04399 2.33144 8.76719 2.54063C8.56371 2.69431 8.33827 2.81651 8.09844 2.90313C7.8371 2.95115 7.56997 2.95906 7.30625 2.92656C6.86406 2.89844 6.40781 2.86875 6.01406 3.09687C5.62031 3.325 5.4125 3.75 5.21563 4.14219C5.14219 4.28906 5.07188 4.42969 4.99531 4.55469L3.58906 3.14844L4.25156 2.48594C4.3102 2.4273 4.34314 2.34777 4.34314 2.26484C4.34314 2.18192 4.3102 2.10239 4.25156 2.04375C4.19292 1.98511 4.1134 1.95217 4.03047 1.95217C3.94754 1.95217 3.86801 1.98511 3.80937 2.04375L2.92656 2.92656L2.04531 3.8125C2.01628 3.84153 1.99325 3.876 1.97753 3.91394C1.96182 3.95187 1.95373 3.99253 1.95373 4.03359C1.95373 4.07465 1.96182 4.11531 1.97753 4.15325C1.99325 4.19118 2.01628 4.22565 2.04531 4.25469C2.07435 4.28372 2.10882 4.30675 2.14675 4.32247C2.18469 4.33818 2.22535 4.34627 2.26641 4.34627C2.30747 4.34627 2.34813 4.33818 2.38606 4.32247C2.424 4.30675 2.45847 4.28372 2.4875 4.25469L3.15 3.59375L4.55625 5C4.43125 5.07656 4.29063 5.14688 4.14531 5.21875C3.74375 5.41719 3.32969 5.62031 3.1 6.01875C2.87031 6.41719 2.90156 6.86875 2.92969 7.31094C2.96216 7.57466 2.95425 7.84179 2.90625 8.10312C2.81964 8.34296 2.69744 8.5684 2.54375 8.77188C2.33457 9.04868 2.17588 9.36023 2.075 9.69219H0.625V8.75C0.625 8.66712 0.592076 8.58763 0.533471 8.52903C0.474866 8.47042 0.39538 8.4375 0.3125 8.4375C0.22962 8.4375 0.150134 8.47042 0.0915291 8.52903C0.032924 8.58763 0 8.66712 0 8.75L0 11.25C0 11.3329 0.032924 11.4124 0.0915291 11.471C0.150134 11.5296 0.22962 11.5625 0.3125 11.5625C0.39538 11.5625 0.474866 11.5296 0.533471 11.471C0.592076 11.4124 0.625 11.3329 0.625 11.25V10.3125H2.07188C2.17276 10.6445 2.33144 10.956 2.54063 11.2328C2.69431 11.4363 2.81651 11.6617 2.90313 11.9016C2.95115 12.1629 2.95906 12.43 2.92656 12.6937C2.89844 13.1359 2.86875 13.5922 3.09687 13.9859C3.325 14.3797 3.74062 14.5875 4.14062 14.7859C4.2875 14.8578 4.42812 14.9281 4.55312 15.0047L3.14687 16.4109L2.48438 15.7484C2.42574 15.6898 2.34621 15.6569 2.26328 15.6569C2.18036 15.6569 2.10083 15.6898 2.04219 15.7484C1.98355 15.8071 1.95061 15.8866 1.95061 15.9695C1.95061 16.0525 1.98355 16.132 2.04219 16.1906L2.925 17.0734L3.80781 17.9562C3.83685 17.9853 3.87132 18.0083 3.90925 18.024C3.94719 18.0397 3.98785 18.0478 4.02891 18.0478C4.06997 18.0478 4.11063 18.0397 4.14856 18.024C4.1865 18.0083 4.22097 17.9853 4.25 17.9562C4.27903 17.9272 4.30207 17.8927 4.31778 17.8548C4.33349 17.8169 4.34158 17.7762 4.34158 17.7352C4.34158 17.6941 4.33349 17.6534 4.31778 17.6155C4.30207 17.5776 4.27903 17.5431 4.25 17.5141L3.59375 16.85L5 15.4437C5.07656 15.5687 5.14688 15.7094 5.21875 15.8547C5.41719 16.2563 5.62031 16.6703 6.01875 16.9C6.41719 17.1297 6.86875 17.0984 7.31094 17.0703C7.57466 17.0378 7.84179 17.0457 8.10312 17.0938C8.34296 17.1804 8.5684 17.3026 8.77188 17.4562C9.04868 17.6654 9.36023 17.8241 9.69219 17.925V19.375H8.75C8.66712 19.375 8.58763 19.4079 8.52903 19.4665C8.47042 19.5251 8.4375 19.6046 8.4375 19.6875C8.4375 19.7704 8.47042 19.8499 8.52903 19.9085C8.58763 19.9671 8.66712 20 8.75 20H11.25C11.3329 20 11.4124 19.9671 11.471 19.9085C11.5296 19.8499 11.5625 19.7704 11.5625 19.6875C11.5625 19.6046 11.5296 19.5251 11.471 19.4665C11.4124 19.4079 11.3329 19.375 11.25 19.375H10.3125V17.9281C10.6445 17.8272 10.956 17.6686 11.2328 17.4594C11.4363 17.3057 11.6617 17.1835 11.9016 17.0969C12.1629 17.0489 12.43 17.041 12.6937 17.0734C13.1359 17.1016 13.5922 17.1313 13.9859 16.9031C14.3797 16.675 14.5875 16.2594 14.7859 15.8594C14.8578 15.7125 14.9281 15.5719 15.0047 15.4469L16.4109 16.8531L15.7484 17.5156C15.6898 17.5743 15.6569 17.6538 15.6569 17.7367C15.6569 17.8196 15.6898 17.8992 15.7484 17.9578C15.8071 18.0165 15.8866 18.0494 15.9695 18.0494C16.0525 18.0494 16.132 18.0165 16.1906 17.9578L17.0734 17.075L17.9562 16.1922C18.0149 16.1335 18.0478 16.054 18.0478 15.9711C18.0478 15.8882 18.0149 15.8086 17.9562 15.75C17.8976 15.6914 17.8181 15.6584 17.7352 15.6584C17.6522 15.6584 17.5727 15.6914 17.5141 15.75L16.85 16.4062L15.4437 15C15.5687 14.9234 15.7094 14.8531 15.8547 14.7812C16.2563 14.5828 16.6703 14.3797 16.9 13.9813C17.1297 13.5828 17.0984 13.1312 17.0703 12.6891C17.0378 12.4253 17.0457 12.1582 17.0938 11.8969C17.1804 11.657 17.3026 11.4316 17.4562 11.2281C17.6654 10.9513 17.8241 10.6398 17.925 10.3078H19.375V11.2453C19.375 11.3282 19.4079 11.4077 19.4665 11.4663C19.5251 11.5249 19.6046 11.5578 19.6875 11.5578C19.7704 11.5578 19.8499 11.5249 19.9085 11.4663C19.9671 11.4077 20 11.3282 20 11.2453V8.75C20 8.66712 19.9671 8.58763 19.9085 8.52903C19.8499 8.47042 19.7704 8.4375 19.6875 8.4375ZM16.9391 10.8859C16.7438 11.1441 16.5928 11.433 16.4922 11.7406C16.423 12.0667 16.4082 12.4019 16.4484 12.7328C16.4719 13.0984 16.4937 13.4437 16.3609 13.6703C16.2281 13.8969 15.9125 14.0594 15.5797 14.2234C15.2757 14.3515 14.9953 14.5295 14.75 14.75C14.528 14.9957 14.3484 15.2766 14.2188 15.5813C14.0547 15.9125 13.9062 16.225 13.6656 16.3625C13.425 16.5 13.0922 16.4734 12.7281 16.45C12.3972 16.4097 12.062 16.4245 11.7359 16.4937C11.4283 16.5944 11.1394 16.7454 10.8813 16.9406C10.5688 17.1484 10.2766 17.3453 9.99531 17.3453C9.71406 17.3453 9.42031 17.1484 9.10938 16.9406C8.85118 16.7454 8.56236 16.5944 8.25469 16.4937C8.07652 16.4487 7.89312 16.4276 7.70937 16.4313C7.55312 16.4313 7.40937 16.4406 7.2625 16.45C6.89687 16.4734 6.55156 16.4953 6.325 16.3625C6.09844 16.2297 5.93594 15.9141 5.77187 15.5813C5.64382 15.2773 5.46584 14.9968 5.24531 14.7516C5.00119 14.5294 4.72187 14.3494 4.41875 14.2188C4.0875 14.0547 3.775 13.9062 3.6375 13.6656C3.5 13.425 3.52656 13.0922 3.55 12.7281C3.59026 12.3972 3.57548 12.062 3.50625 11.7359C3.40564 11.4283 3.25462 11.1394 3.05938 10.8813C2.85313 10.575 2.65625 10.2812 2.65625 10C2.65625 9.71875 2.85313 9.425 3.06094 9.11406C3.25619 8.85587 3.4072 8.56705 3.50781 8.25937C3.57704 7.93333 3.59183 7.59806 3.55156 7.26719C3.52812 6.90156 3.50625 6.55625 3.63906 6.32969C3.77188 6.10312 4.0875 5.94063 4.42031 5.77656C4.72429 5.64851 5.00471 5.47053 5.25 5.25C5.47202 5.00434 5.65156 4.72341 5.78125 4.41875C5.9375 4.0875 6.09375 3.775 6.33438 3.6375C6.575 3.5 6.90781 3.52656 7.27188 3.55C7.60275 3.59029 7.93802 3.57551 8.26406 3.50625C8.57173 3.40564 8.86056 3.25462 9.11875 3.05938C9.425 2.85313 9.71875 2.65625 10 2.65625C10.2812 2.65625 10.575 2.85313 10.8859 3.06094C11.1441 3.25619 11.433 3.4072 11.7406 3.50781C12.0667 3.57704 12.4019 3.59183 12.7328 3.55156C13.0984 3.52812 13.4437 3.50625 13.6703 3.63906C13.8969 3.77188 14.0594 4.0875 14.2234 4.42031C14.3515 4.72429 14.5295 5.00471 14.75 5.25C14.9957 5.47202 15.2766 5.65156 15.5813 5.78125C15.9125 5.9375 16.225 6.09375 16.3625 6.33438C16.5 6.575 16.4734 6.90781 16.45 7.27188C16.4097 7.60275 16.4245 7.93801 16.4937 8.26406C16.5944 8.57173 16.7454 8.86056 16.9406 9.11875C17.1484 9.43125 17.3453 9.72344 17.3453 10.0047C17.3453 10.2859 17.1469 10.575 16.9391 10.8859Z" fill="#A02733" stroke="#A02733" stroke-width="0.5"/>
</g>
<defs>
<clipPath id="clip0">
<rect width="20" height="20" fill="white"/>
</clipPath>
</defs>
</svg>
