<svg width="41" height="40" viewBox="0 0 41 40" fill="none" xmlns="http://www.w3.org/2000/svg">
<path fill-rule="evenodd" clip-rule="evenodd" d="M12 18H3.5C2.66387 18 2 18.6761 2 19.4931C2 20.1383 2.41405 20.6956 3 20.9015L3 22.8839C2.6925 23.1578 2.5 23.5558 2.5 23.9967C2.5 24.3808 2.64603 24.7322 2.8869 24.9976C2.64603 25.2629 2.5 25.6143 2.5 25.9984C2.5 26.3824 2.64603 26.7339 2.8869 26.9992C2.64603 27.2645 2.5 27.616 2.5 28C2.5 28.384 2.64603 28.7355 2.8869 29.0008C2.64603 29.2661 2.5 29.6176 2.5 30.0016C2.5 30.3857 2.64603 30.7371 2.8869 31.0024C2.64603 31.2678 2.5 31.6192 2.5 32.0033C2.5 32.4442 2.6925 32.8422 3 33.1161V35.0986C2.41405 35.3044 2 35.8617 2 36.5069C2 37.3239 2.66387 38 3.5 38H14.5C15.1598 38 15.7123 37.579 15.916 37H14.6222C14.5828 37.0101 14.5419 37.0155 14.5 37.0155H3.5C3.23156 37.0155 3 36.7954 3 36.5069C3 36.2184 3.23157 35.9984 3.5 35.9984C3.77614 35.9984 4 35.778 4 35.5061V33.5045H12V32.52H3.85138C3.82233 32.4917 3.78954 32.4667 3.75345 32.4459C3.60339 32.359 3.5 32.1948 3.5 32.0033C3.5 31.8117 3.60339 31.6475 3.75345 31.5607C3.78243 31.5439 3.8093 31.5245 3.8338 31.5028H12V30.5183H3.85138C3.82233 30.4901 3.78954 30.4651 3.75345 30.4442C3.60339 30.3574 3.5 30.1932 3.5 30.0016C3.5 29.8101 3.60339 29.6459 3.75345 29.559C3.78243 29.5423 3.8093 29.5228 3.8338 29.5012H12V28.5167H3.85138C3.82233 28.4885 3.78954 28.4635 3.75345 28.4426C3.60339 28.3557 3.5 28.1916 3.5 28C3.5 27.8084 3.60339 27.6443 3.75345 27.5574C3.78243 27.5406 3.8093 27.5212 3.8338 27.4996H12V26.5151H11.4328C11.6512 26.3036 11.8423 26.064 12 25.802V22.1915C11.3876 21.1742 10.2732 20.4939 9 20.4939C7.5974 20.4939 6.3875 21.3196 5.82913 22.5118H4L4 20.4939C4 20.3633 3.94732 20.2381 3.85355 20.1458C3.75979 20.0535 3.63261 20.0016 3.5 20.0016C3.23156 20.0016 3 19.7816 3 19.4931C3 19.2046 3.23156 18.9845 3.5 18.9845H12V18ZM6.56724 26.5151H3.85138C3.82233 26.4868 3.78954 26.4619 3.75345 26.441C3.60339 26.3541 3.5 26.1899 3.5 25.9984C3.5 25.8068 3.60339 25.6427 3.75345 25.5558C3.78243 25.539 3.8093 25.5196 3.8338 25.498H5.83682C6.01824 25.8802 6.2668 26.2243 6.56724 26.5151ZM9 26.5151C10.3653 26.5151 11.5 25.4029 11.5 23.9967C11.5 22.5906 10.3653 21.4784 9 21.4784C7.6347 21.4784 6.5 22.5906 6.5 23.9967C6.5 25.4029 7.6347 26.5151 9 26.5151ZM5.53781 24.5134C5.5129 24.3448 5.5 24.1723 5.5 23.9967C5.5 23.8268 5.51209 23.6598 5.53544 23.4963H3.8338C3.8093 23.518 3.78243 23.5374 3.75345 23.5541C3.60339 23.641 3.5 23.8052 3.5 23.9967C3.5 24.1883 3.60339 24.3525 3.75345 24.4393C3.78954 24.4602 3.82233 24.4852 3.85138 24.5134H5.53781Z" fill="white"/>
<path fill-rule="evenodd" clip-rule="evenodd" d="M15.3621 3.5C14.5336 3.5 13.8621 4.17157 13.8621 5V6.04966C13.8621 6.6767 14.2468 7.21388 14.7931 7.43799V8.52483C14.7931 9.57948 14.7076 9.72741 14 10.5L13.4986 11.0146C13.4454 11.0727 13.3914 11.1307 13.337 11.189C12.6934 11.8807 12 12.6258 12 14.1159V34.4469C12 35.0269 12.1556 35.8918 12.6412 36.6282C13.1446 37.3916 13.9936 37.9966 15.2931 37.9966H23.2069C24.3403 37.9966 25.1311 37.5364 25.6487 36.9122L24.5019 36.6255C24.183 36.8507 23.7637 36.9966 23.2069 36.9966H15.2931C14.3581 36.9966 13.8106 36.585 13.476 36.0777C13.1238 35.5435 13 34.8836 13 34.4469V31.4469L21.3496 31.4469L21.2067 30.4469L13 30.4469V23.2483H21.8809C22.0548 22.819 22.3717 22.4677 22.7691 22.2483H13V14.1159C13 13.0612 13.5577 12.4307 14.2653 11.6581L14.3075 11.612C14.988 10.8693 15.7931 9.99069 15.7931 8.52483V7.54966H22.7069V8.52483C22.7069 9.99069 23.512 10.8693 24.1925 11.612L24.2347 11.6581C24.9423 12.4307 25.5 13.0612 25.5 14.1159V22H26.5V14.1159C26.5 12.6501 25.6847 11.7603 25.0015 11.0146L24.9722 10.9826C24.2646 10.2101 23.7069 9.57948 23.7069 8.52483V7.43799C24.2532 7.21387 24.6379 6.67669 24.6379 6.04966V5C24.6379 4.17157 23.9663 3.5 23.1379 3.5H15.3621ZM15.1446 6.5H23.3554C23.5226 6.4191 23.6379 6.24785 23.6379 6.04966V5C23.6379 4.72386 23.4141 4.5 23.1379 4.5H15.3621C15.0859 4.5 14.8621 4.72386 14.8621 5V6.04966C14.8621 6.24785 14.9774 6.4191 15.1446 6.5Z" fill="white"/>
<path fill-rule="evenodd" clip-rule="evenodd" d="M29.3258 18.2283C29.1758 17.9965 28.8662 17.9303 28.6344 18.0803C28.4026 18.2304 28.3363 18.54 28.4864 18.7718C29.1695 19.8269 29.1424 21.2857 29.0094 21.9615C29.0047 21.9854 29.0018 22.0093 29.0006 22.033C28.325 21.9631 27.9184 21.7564 27.5118 21.5497C27.0118 21.2956 26.5118 21.0414 25.5118 21.0414C23.5118 21.0414 20 22.5663 20 26.6325C20 30.6987 21.0118 33.2401 25.5118 37.8146C26.2609 38.576 27.7293 38.216 28.7651 37.9621C29.0882 37.8829 29.3512 37.8184 29.5059 37.8147C29.6606 37.8184 29.9236 37.8829 30.2467 37.9621C31.2237 38.2016 32.7509 38.576 33.5 37.8146C38 33.2401 39.0118 30.6987 39.0118 26.6325C39.0118 22.5663 35.5 21.0414 33.5 21.0414C32.5 21.0414 32 21.2956 31.5 21.5497C31.0936 21.7563 30.6873 21.9628 30.0125 22.0329C30.1516 21.1869 30.1664 19.5267 29.3258 18.2283ZM29.5299 36.815L29.5059 36.8144L29.4819 36.815C29.3056 36.8192 29.124 36.8538 28.9921 36.8816C28.8507 36.9115 28.6909 36.9507 28.5373 36.9883L28.527 36.9909C27.9908 37.1223 27.4612 37.2487 26.986 37.2701C26.4942 37.2922 26.2996 37.1895 26.2247 37.1133C24.0036 34.8555 22.7163 33.1702 21.9716 31.6036C21.2396 30.0639 21 28.5712 21 26.6325C21 24.9283 21.7192 23.8117 22.6251 23.0974C23.5682 22.3537 24.7255 22.0414 25.5118 22.0414C26.2725 22.0414 26.6074 22.2117 27.0431 22.4332L27.0587 22.4412C27.6138 22.7233 28.2788 23.0568 29.5049 23.058L29.5069 23.058C30.733 23.0568 31.398 22.7233 31.9531 22.4412L31.9687 22.4332C32.4045 22.2117 32.7393 22.0414 33.5 22.0414C34.2863 22.0414 35.4436 22.3537 36.3867 23.0974C37.2926 23.8117 38.0118 24.9283 38.0118 26.6325C38.0118 28.5712 37.7722 30.0639 37.0403 31.6036C36.2955 33.1702 35.0082 34.8555 32.7871 37.1133C32.7182 37.1833 32.5176 37.2891 32.0063 37.2648C31.5215 37.2418 30.9893 37.1145 30.4848 36.9909L30.4745 36.9883C30.3209 36.9507 30.1611 36.9115 30.0197 36.8816C29.8878 36.8538 29.7062 36.8192 29.5299 36.815Z" fill="white"/>
</svg>
