<svg width="17" height="17" viewBox="0 0 17 17" fill="none" xmlns="http://www.w3.org/2000/svg">
<path fill-rule="evenodd" clip-rule="evenodd" d="M8 0H9V2.01894C12.1912 2.2617 14.7383 4.8088 14.981 8H17V9H14.981C14.7383 12.1912 12.1912 14.7383 9 14.9811V17H8V14.9811C4.80878 14.7383 2.26172 12.1912 2.01895 9H0V8H2.01895C2.26172 4.8088 4.80878 2.2617 8 2.01894V0ZM3 8.5C3 11.5376 5.46243 14 8.5 14C11.5376 14 14 11.5376 14 8.5C14 5.46243 11.5376 3 8.5 3C5.46243 3 3 5.46243 3 8.5ZM8.5 11C9.88071 11 11 9.88071 11 8.5C11 7.11929 9.88071 6 8.5 6C7.11929 6 6 7.11929 6 8.5C6 9.88071 7.11929 11 8.5 11Z" fill="#1400FF"/>
</svg>
