<svg width="50" height="50" viewBox="0 0 50 50" fill="none" xmlns="http://www.w3.org/2000/svg">
<path fill-rule="evenodd" clip-rule="evenodd" d="M24.9645 29.9289C22.0058 29.9289 19.599 27.5221 19.599 24.5635V15.3655C19.599 12.4068 22.0058 10 24.9645 10C27.9232 10 30.33 12.4068 30.33 15.3655V24.5635C30.33 27.5221 27.9232 29.9289 24.9645 29.9289ZM24.9645 11.533C22.852 11.533 21.132 13.253 21.132 15.3655V24.5635C21.132 26.6759 22.852 28.396 24.9645 28.396C27.077 28.396 28.797 26.6759 28.797 24.5635V15.3655C28.797 13.253 27.077 11.533 24.9645 11.533Z" fill="white"/>
<path fill-rule="evenodd" clip-rule="evenodd" d="M34.9289 24.5635C34.9289 24.1403 34.5856 23.797 34.1625 23.797C33.7393 23.797 33.396 24.1403 33.396 24.5635C33.396 29.213 29.614 32.9949 24.9645 32.9949C20.3149 32.9949 16.533 29.213 16.533 24.5635C16.533 24.1403 16.1896 23.797 15.7665 23.797C15.3434 23.797 15 24.1403 15 24.5635C15 29.8002 19.0609 34.1064 24.198 34.4988V37.5939H21.8985C21.4754 37.5939 21.132 37.9373 21.132 38.3604C21.132 38.7835 21.4754 39.1269 21.8985 39.1269H28.0305C28.4536 39.1269 28.797 38.7835 28.797 38.3604C28.797 37.9373 28.4536 37.5939 28.0305 37.5939H25.731V34.4988C30.868 34.1064 34.9289 29.8002 34.9289 24.5635Z" fill="white"/>
</svg>
