<svg width="40" height="40" viewBox="0 0 40 40" fill="none" xmlns="http://www.w3.org/2000/svg">
<path fill-rule="evenodd" clip-rule="evenodd" d="M10.5 19.5135V12.7027H13.5V11.7297H7.29999C6.65997 11.7297 6.5 12.0541 6.5 12.2162V38H8.90002V20.973C9.66412 20.973 10.0861 20.7418 10.3022 20.4865H13.5V19.5135H10.5ZM9.5 12.7297H7.5V37H7.90002V19.973H8.90002C9.26074 19.973 9.43286 19.9044 9.5 19.867V12.7297Z" fill="white"/>
<rect x="11.5" y="17.5676" width="2" height="0.972973" fill="white"/>
<rect x="11.5" y="15.6216" width="2" height="0.972973" fill="white"/>
<rect x="11.5" y="13.6757" width="2" height="0.972973" fill="white"/>
<path fill-rule="evenodd" clip-rule="evenodd" d="M17.5117 11.1891C17.1167 10.6552 16.467 10.2568 15.5098 10.2568H13.5098C13.4851 10.2568 13.4378 10.2583 13.381 10.2727C13.3294 10.2858 13.2169 10.3228 13.1224 10.4322C13.0116 10.5605 12.988 10.714 13.0052 10.8332C13.0196 10.9334 13.0606 11.0038 13.0796 11.0338C13.1184 11.0948 13.1627 11.1351 13.1754 11.1467C13.1948 11.1644 13.2134 11.1791 13.2264 11.1891C13.2644 11.2183 13.3204 11.2564 13.3707 11.2906L13.3985 11.3095C13.5286 11.3984 13.7015 11.5192 13.8761 11.6701C14.251 11.9943 14.5098 12.3519 14.5098 12.7027V19.027C14.5098 19.3531 14.6061 19.8288 14.9078 20.2366C15.2279 20.6691 15.7525 20.9865 16.5098 20.9865H19.4585L18.9222 20.2039C18.7693 19.9807 18.5337 19.5914 18.3385 19.1697C18.136 18.7323 18.0098 18.3289 18.0098 18.0541V12.7027C18.0098 12.2955 17.8884 11.6982 17.5117 11.1891ZM15.5097 12.7027C15.5097 12.1057 15.2069 11.6163 14.8828 11.2568H15.5097C16.1525 11.2568 16.5029 11.5069 16.7078 11.7839C16.9311 12.0856 17.0097 12.4612 17.0097 12.7027V18.0541C17.0097 18.5576 17.2168 19.1272 17.431 19.5898C17.4942 19.7264 17.561 19.8596 17.6283 19.9865H16.5097C16.067 19.9865 15.8416 19.8174 15.7117 19.6418C15.5634 19.4414 15.5097 19.1874 15.5097 19.027V12.7027Z" fill="white"/>
<path fill-rule="evenodd" clip-rule="evenodd" d="M22.5 30.2432H11.5C10.9477 30.2432 10.5 30.691 10.5 31.2432V36C10.5 36.5523 10.9477 37 11.5 37H22.5C23.0523 37 23.5 36.5523 23.5 36V31.2432C23.5 30.691 23.0523 30.2432 22.5 30.2432ZM11.5 29.2432C10.3954 29.2432 9.5 30.1387 9.5 31.2432V36C9.5 37.1046 10.3954 38 11.5 38H22.5C23.6046 38 24.5 37.1046 24.5 36V31.2432C24.5 30.1387 23.6046 29.2432 22.5 29.2432H11.5Z" fill="white"/>
<path fill-rule="evenodd" clip-rule="evenodd" d="M32.5 8.81081C33.5774 8.81081 34.4559 9.66275 34.4984 10.7297C34.4995 10.7566 34.5 10.7837 34.5 10.8108V11.7297H29.5V13.6757H30.5V15.6216H31.5C33.1569 15.6216 34.5 16.9648 34.5 18.6216V35C34.5 36.6569 33.1569 38 31.5 38H23.5028C24.2419 37.999 24.8871 37.5971 25.2324 37C25.4026 36.7058 25.5 36.3643 25.5 36V30.2703C25.5 29.1657 24.6046 28.2703 23.5 28.2703H20.5V18.6216C20.5 16.9648 21.8431 15.6216 23.5 15.6216H24.5V13.6757H25.5V10.7568L25.5007 10.7559L25.5016 10.7297C25.5441 9.66275 26.4226 8.81081 27.5 8.81081H32.5ZM27.5 9.81081H32.5C33.025 9.81081 33.4555 10.2154 33.4968 10.7297H26.5032C26.5445 10.2154 26.975 9.81081 27.5 9.81081ZM26.5 13.6486V11.7568H28.5V13.6486H26.5ZM25.5 14.6757V15.5946H29.5V14.6757H25.5ZM31.5 37H26.3293C26.4398 36.6872 26.5 36.3506 26.5 36V30.2703C26.5 28.6134 25.1569 27.2703 23.5 27.2703H21.5V18.6216C21.5 17.5171 22.3954 16.6216 23.5 16.6216H31.5C32.6046 16.6216 33.5 17.5171 33.5 18.6216V35C33.5 36.1046 32.6046 37 31.5 37Z" fill="white"/>
<path fill-rule="evenodd" clip-rule="evenodd" d="M21.5 8.81081C22.0523 8.81081 22.5 8.3752 22.5 7.83784C22.5 7.30048 22.0523 6.86486 21.5 6.86486C20.9477 6.86486 20.5 7.30048 20.5 7.83784C20.5 8.3752 20.9477 8.81081 21.5 8.81081Z" fill="white"/>
<path fill-rule="evenodd" clip-rule="evenodd" d="M24 5.86486C24.3021 5.86486 24.5 5.63351 24.5 5.40541C24.5 5.1773 24.3021 4.94595 24 4.94595C23.6979 4.94595 23.5 5.1773 23.5 5.40541C23.5 5.63351 23.6979 5.86486 24 5.86486ZM24 6.86486C24.8284 6.86486 25.5 6.21144 25.5 5.40541C25.5 4.59937 24.8284 3.94595 24 3.94595C23.1716 3.94595 22.5 4.59937 22.5 5.40541C22.5 6.21144 23.1716 6.86486 24 6.86486Z" fill="white"/>
<path fill-rule="evenodd" clip-rule="evenodd" d="M19.5 4.89189C20.0783 4.89189 20.5 4.44273 20.5 3.94595C20.5 3.44917 20.0783 3 19.5 3C18.9217 3 18.5 3.44917 18.5 3.94595C18.5 4.44273 18.9217 4.89189 19.5 4.89189ZM19.5 5.89189C20.6046 5.89189 21.5 5.02066 21.5 3.94595C21.5 2.87123 20.6046 2 19.5 2C18.3954 2 17.5 2.87123 17.5 3.94595C17.5 5.02066 18.3954 5.89189 19.5 5.89189Z" fill="white"/>
</svg>
