<svg width="14" height="14" viewBox="0 0 14 14" fill="none" xmlns="http://www.w3.org/2000/svg">
  <path fillRule="evenodd" clipRule="evenodd" d="M0.5 5.47761C0.5 2.72855 2.72855 0.5 5.47761 0.5C8.22667 0.5 10.4552 2.72855 10.4552 5.47761C10.4552 6.55476 10.1131 7.552 9.53154 8.36658C9.6016 8.40471 9.66777 8.45368 9.72785 8.51375L13.6315 12.4174L12.4178 13.6311L8.51416 9.72744C8.45414 9.66743 8.40539 9.60112 8.36755 9.53085C7.5528 10.1128 6.55519 10.4552 5.47761 10.4552C2.72855 10.4552 0.5 8.22667 0.5 5.47761ZM5.47761 2.04605C3.58241 2.04605 2.04605 3.58241 2.04605 5.47761C2.04605 7.37281 3.58241 8.90917 5.47761 8.90917C7.37281 8.90917 8.90917 7.37281 8.90917 5.47761C8.90917 3.58241 7.37281 2.04605 5.47761 2.04605Z" fill="#ffffff" />
</svg>
