<svg width="40" height="40" viewBox="0 0 40 40" fill="none" xmlns="http://www.w3.org/2000/svg">
<path d="M19.8225 8.25243L19.5143 8.64618L19.8225 8.25243ZM19.1889 8.26655L18.8636 7.88692L19.1889 8.26655ZM30.8081 16.8499L30.4999 17.2436L30.8081 16.8499ZM31.1162 16.4561L20.1307 7.85867L19.5143 8.64618L30.4999 17.2436L31.1162 16.4561ZM31.4999 36.5V17.2436H30.4999V36.5H31.4999ZM24.5 37.5H30.4999V36.5H24.5V37.5ZM23.5 26.5V36.5H24.5V26.5H23.5ZM16.5 26.5H23.5V25.5H16.5V26.5ZM16.5 36.5V26.5H15.5V36.5H16.5ZM9.49994 37.5H15.5V36.5H9.49994V37.5ZM8.49994 17.23V36.5H9.49994V17.23H8.49994ZM18.8636 7.88692L8.84915 16.4707L9.49994 17.23L19.5143 8.64618L18.8636 7.88692ZM9.49994 17.23L9.49994 17.23L8.84915 16.4707C8.6275 16.6607 8.49994 16.938 8.49994 17.23H9.49994ZM9.49994 36.5L9.49994 36.5H8.49994C8.49994 37.0523 8.94765 37.5 9.49994 37.5V36.5ZM15.5 36.5L15.5 36.5V37.5C16.0523 37.5 16.5 37.0523 16.5 36.5H15.5ZM16.5 25.5C15.9477 25.5 15.5 25.9477 15.5 26.5H16.5V26.5V25.5ZM24.5 26.5C24.5 25.9477 24.0523 25.5 23.5 25.5V26.5V26.5H24.5ZM24.5 36.5L24.5 36.5H23.5C23.5 37.0523 23.9477 37.5 24.5 37.5V36.5ZM30.4999 36.5L30.4999 36.5V37.5C31.0522 37.5 31.4999 37.0523 31.4999 36.5H30.4999ZM20.1307 7.85867C19.7555 7.56506 19.2253 7.57688 18.8636 7.88692L19.5143 8.64618L19.5143 8.64618L20.1307 7.85867ZM30.4999 17.2436L30.4999 17.2436H31.4999C31.4999 16.9361 31.3584 16.6456 31.1162 16.4561L30.4999 17.2436Z" fill="white"/>
<path d="M5.5 16L19.5 4.5L34.5 15.5" stroke="white" stroke-linecap="round" stroke-linejoin="round"/>
<path d="M6.5 19L19.5 8L33.5 18.5" stroke="white" stroke-linecap="round" stroke-linejoin="round"/>
<mask id="path-4-inside-1" fill="white">
<rect x="16" y="18" width="8" height="4" rx="0.5"/>
</mask>
<rect x="16" y="18" width="8" height="4" rx="0.5" stroke="white" stroke-width="2" stroke-linecap="round" mask="url(#path-4-inside-1)"/>
<path d="M10.5 5.5H13.5V9.29289L13.166 9.62687L10.729 11.5765L10.5 11.691L10.5 5.5Z" stroke="white"/>
</svg>
