<svg width="30" height="34" viewBox="0 0 30 34" fill="none" xmlns="http://www.w3.org/2000/svg">
<path d="M14.8225 4.25244L14.5143 4.64619L14.8225 4.25244ZM14.1889 4.26656L13.8636 3.88693L14.1889 4.26656ZM25.8081 12.8499L25.4999 13.2436L25.8081 12.8499ZM26.1162 12.4561L15.1307 3.85869L14.5143 4.64619L25.4999 13.2436L26.1162 12.4561ZM26.4999 32.5V13.2436H25.4999V32.5H26.4999ZM19.5 33.5H25.4999V32.5H19.5V33.5ZM18.5 22.5V32.5H19.5V22.5H18.5ZM11.5 22.5H18.5V21.5H11.5V22.5ZM11.5 32.5V22.5H10.5V32.5H11.5ZM4.49994 33.5H10.5V32.5H4.49994V33.5ZM3.49994 13.23V32.5H4.49994V13.23H3.49994ZM13.8636 3.88693L3.84915 12.4707L4.49994 13.23L14.5143 4.64619L13.8636 3.88693ZM4.49994 13.23L4.49994 13.23L3.84915 12.4707C3.6275 12.6607 3.49994 12.938 3.49994 13.23H4.49994ZM4.49994 32.5L4.49994 32.5H3.49994C3.49994 33.0523 3.94765 33.5 4.49994 33.5V32.5ZM10.5 32.5L10.5 32.5V33.5C11.0523 33.5 11.5 33.0523 11.5 32.5H10.5ZM11.5 21.5C10.9477 21.5 10.5 21.9477 10.5 22.5H11.5V22.5V21.5ZM19.5 22.5C19.5 21.9477 19.0523 21.5 18.5 21.5V22.5V22.5H19.5ZM19.5 32.5L19.5 32.5H18.5C18.5 33.0523 18.9477 33.5 19.5 33.5V32.5ZM25.4999 32.5L25.4999 32.5V33.5C26.0522 33.5 26.4999 33.0523 26.4999 32.5H25.4999ZM15.1307 3.85869C14.7555 3.56507 14.2253 3.57689 13.8636 3.88693L14.5143 4.64619L14.5143 4.64619L15.1307 3.85869ZM25.4999 13.2436L25.4999 13.2436H26.4999C26.4999 12.9361 26.3584 12.6456 26.1162 12.4561L25.4999 13.2436Z" fill="white"/>
<path d="M0.5 12L14.5 0.5L29.5 11.5" stroke="white" stroke-linecap="round" stroke-linejoin="round"/>
<path d="M1.5 15L14.5 4L28.5 14.5" stroke="white" stroke-linecap="round" stroke-linejoin="round"/>
<mask id="path-4-inside-1" fill="white">
<rect x="11" y="14" width="8" height="4" rx="0.5"/>
</mask>
<rect x="11" y="14" width="8" height="4" rx="0.5" stroke="white" stroke-width="2" stroke-linecap="round" mask="url(#path-4-inside-1)"/>
<path d="M5.5 1.5H8.5V5.29289L8.16603 5.62687L5.72902 7.57648L5.5 7.69098L5.5 1.5Z" stroke="white"/>
</svg>
