<svg width="60" height="60" viewBox="0 0 60 60" fill="none" xmlns="http://www.w3.org/2000/svg">
<rect width="60" height="60" fill="white"/>
<path d="M18.5 30.5C18.5 20.835 26.335 13 36 13C45.665 13 53.5 20.835 53.5 30.5C53.5 40.165 45.665 48 36 48C26.335 48 18.5 40.165 18.5 30.5Z" fill="#BCBDC7"/>
<circle cx="36.4375" cy="30.9789" r="7.4375" fill="white"/>
<path d="M43.4375 28.75H53.5V30.9375H43.4375V28.75Z" fill="white"/>
<path d="M36 30.5H53.5V48L36 30.5Z" fill="#BCBDC7"/>
<g filter="url(#filter0_d)">
<g filter="url(#filter1_i)">
<path d="M7 30.5C7 20.835 14.835 13 24.5 13C34.165 13 42 20.835 42 30.5C42 40.165 34.165 48 24.5 48C14.835 48 7 40.165 7 30.5Z" fill="#1400FF"/>
</g>
<g filter="url(#filter2_d)">
<circle cx="24.9375" cy="30.9789" r="7.4375" fill="white"/>
</g>
<path d="M31.9375 28.75H42V30.9375H31.9375V28.75Z" fill="white"/>
<path d="M24.5 30.5H42V48L24.5 30.5Z" fill="#1400FF"/>
</g>
<defs>
<filter id="filter0_d" x="6" y="12.5" width="37" height="37" filterUnits="userSpaceOnUse" color-interpolation-filters="sRGB">
<feFlood flood-opacity="0" result="BackgroundImageFix"/>
<feColorMatrix in="SourceAlpha" type="matrix" values="0 0 0 0 0 0 0 0 0 0 0 0 0 0 0 0 0 0 127 0"/>
<feOffset dy="0.5"/>
<feGaussianBlur stdDeviation="0.5"/>
<feColorMatrix type="matrix" values="0 0 0 0 0 0 0 0 0 0 0 0 0 0 0 0 0 0 0.3 0"/>
<feBlend mode="normal" in2="BackgroundImageFix" result="effect1_dropShadow"/>
<feBlend mode="normal" in="SourceGraphic" in2="effect1_dropShadow" result="shape"/>
</filter>
<filter id="filter1_i" x="7" y="13" width="35" height="35.5" filterUnits="userSpaceOnUse" color-interpolation-filters="sRGB">
<feFlood flood-opacity="0" result="BackgroundImageFix"/>
<feBlend mode="normal" in="SourceGraphic" in2="BackgroundImageFix" result="shape"/>
<feColorMatrix in="SourceAlpha" type="matrix" values="0 0 0 0 0 0 0 0 0 0 0 0 0 0 0 0 0 0 127 0" result="hardAlpha"/>
<feOffset dy="0.5"/>
<feGaussianBlur stdDeviation="0.5"/>
<feComposite in2="hardAlpha" operator="arithmetic" k2="-1" k3="1"/>
<feColorMatrix type="matrix" values="0 0 0 0 0 0 0 0 0 0 0 0 0 0 0 0 0 0 0.15 0"/>
<feBlend mode="normal" in2="shape" result="effect1_innerShadow"/>
</filter>
<filter id="filter2_d" x="14.5" y="20.5414" width="20.875" height="20.875" filterUnits="userSpaceOnUse" color-interpolation-filters="sRGB">
<feFlood flood-opacity="0" result="BackgroundImageFix"/>
<feColorMatrix in="SourceAlpha" type="matrix" values="0 0 0 0 0 0 0 0 0 0 0 0 0 0 0 0 0 0 127 0"/>
<feOffset/>
<feGaussianBlur stdDeviation="1.5"/>
<feColorMatrix type="matrix" values="0 0 0 0 0 0 0 0 0 0 0 0 0 0 0 0 0 0 0.25 0"/>
<feBlend mode="normal" in2="BackgroundImageFix" result="effect1_dropShadow"/>
<feBlend mode="normal" in="SourceGraphic" in2="effect1_dropShadow" result="shape"/>
</filter>
</defs>
</svg>
