<svg style='stroke-width: 0px; background-color: #e35205;' width="193px" height="50px" viewBox="0 0 193 50" version="1.1" xmlns="http://www.w3.org/2000/svg" xmlns:xlink="http://www.w3.org/1999/xlink">
    <g id="Page-1" stroke="none" stroke-width="1" fill="white" fill-rule="evenodd">
    <g id="ncs-logo">
    <polyline id="Fill-1" points="48.1650794 32.1642857 43.2714286 24.0174603 41.5293651 20.8920635 41.5293651 32.1642857 38.9674603 32.1642857 38.9674603 15.1007937 41.0674603 15.1007937 45.8333333 23.402381 47.4992063 26.5277778 47.4992063 15.1007937 50.0619048 15.1007937 50.0619048 32.1642857 48.1650794 32.1642857"></polyline>
    <polyline id="Fill-2" points="53.2396825 32.1642857 53.2396825 15.1007937 62.4634921 15.1007937 62.4634921 17.5349206 55.9555556 17.5349206 55.9555556 22.0190476 60.6444444 22.0190476 60.6444444 24.3238095 55.9555556 24.3238095 55.9555556 29.7309524 62.4634921 29.7309524 62.4634921 32.1642857 53.2396825 32.1642857"></polyline>
    <polygon id="Fill-3" points="64.8984127 32.1642857 67.6142857 32.1642857 67.6142857 15.1007937 64.8984127 15.1007937"></polygon>
    <path d="M79.9904762,32.1642857 L79.5547619,30.7301587 C78.8634921,31.9587302 77.4793651,32.6007937 75.6857143,32.6007937 C72.0484127,32.6007937 70.5357143,30.1150794 70.5357143,27.347619 L70.5357143,19.9174603 C70.5357143,17.15 72.2269841,14.6912698 76.0452381,14.6912698 C79.8880952,14.6912698 81.3230159,16.8436508 81.3230159,19.9174603 L81.3230159,20.2769841 L78.7087302,20.2769841 L78.7087302,19.6619048 C78.7087302,18.3039683 77.9666667,17.0484127 76.0452381,17.0484127 C74.1230159,17.0484127 73.2515873,18.3801587 73.2515873,19.7380952 L73.2515873,27.552381 C73.2515873,28.8849206 74.1230159,30.218254 76.0452381,30.218254 C77.9666667,30.218254 78.8373016,28.8849206 78.8373016,27.552381 L78.8373016,25.5293651 L76.1214286,25.5293651 L76.1214286,23.2484127 L81.3992063,23.2484127 L81.3992063,32.1642857 L79.9904762,32.1642857" id="Fill-4"></path>
    <polyline id="Fill-5" points="92.7253968 32.1642857 92.7253968 24.7349206 86.9095238 24.7349206 86.9095238 32.1642857 84.1936508 32.1642857 84.1936508 15.1007937 86.9095238 15.1007937 86.9095238 22.3261905 92.7253968 22.3261905 92.7253968 15.1007937 95.4412698 15.1007937 95.4412698 32.1642857 92.7253968 32.1642857"></polyline>
    <path d="M106.35873,26.8095238 C106.35873,25.3484127 105.64127,24.6063492 104.230952,24.6063492 L101.361111,24.6063492 L101.361111,29.8849206 L104.539683,29.8849206 C105.922222,29.8849206 106.35873,29.0642857 106.35873,28.0142857 L106.35873,26.8095238 Z M106.204762,19.2769841 C106.204762,18.2007937 105.794444,17.381746 104.385714,17.381746 L101.361111,17.381746 L101.361111,22.5055556 L104.076984,22.5055556 C105.486508,22.5055556 106.204762,21.7626984 106.204762,20.3285714 L106.204762,19.2769841 Z M104.513492,32.1642857 L98.6206349,32.1642857 L98.6206349,15.1007937 L104.359524,15.1007937 C107.716667,15.1007937 108.869048,16.7666667 108.869048,19.3039683 L108.869048,19.9436508 C108.869048,21.968254 107.998413,23.0444444 106.33254,23.3507937 C108.253968,23.684127 109.099206,24.9388889 109.099206,26.8095238 L109.099206,27.9634921 C109.099206,30.5 107.869048,32.1642857 104.513492,32.1642857 L104.513492,32.1642857 Z" id="Fill-6"></path>
    <path d="M119.836508,20.0198413 C119.836508,18.2777778 118.965079,17.0484127 117.043651,17.0484127 C115.146825,17.0484127 114.276984,18.2777778 114.276984,20.0198413 L114.276984,27.2452381 C114.276984,28.9880952 115.146825,30.218254 117.043651,30.218254 C118.965079,30.218254 119.836508,28.9880952 119.836508,27.2452381 L119.836508,20.0198413 Z M117.043651,32.6007937 C113.225397,32.6007937 111.534921,30.218254 111.534921,27.065873 L111.534921,20.1992063 C111.534921,17.0738095 113.225397,14.6912698 117.043651,14.6912698 C120.887302,14.6912698 122.551587,17.0738095 122.551587,20.1992063 L122.551587,27.065873 C122.551587,30.218254 120.887302,32.6007937 117.043651,32.6007937 L117.043651,32.6007937 Z" id="Fill-7"></path>
    <path d="M133.057937,19.2769841 C133.057937,18.2007937 132.623016,17.381746 131.213492,17.381746 L128.189683,17.381746 L128.189683,22.8134921 L130.931746,22.8134921 C132.315079,22.8134921 133.057937,22.0690476 133.057937,20.6103175 L133.057937,19.2769841 Z M136.184127,32.3698413 C133.929365,32.3698413 133.161111,31.7547619 133.161111,29.8071429 L133.161111,27.0150794 C133.161111,25.681746 132.571429,24.7865079 131.111111,24.7865079 L128.189683,24.7865079 L128.189683,32.1642857 L125.47381,32.1642857 L125.47381,15.1007937 L131.213492,15.1007937 C134.569841,15.1007937 135.8,16.7666667 135.8,19.3039683 L135.8,20.4555556 C135.8,22.3507937 135.10873,23.4269841 133.187302,23.7603175 C135.08254,23.965873 135.87619,25.5031746 135.87619,26.9888889 L135.87619,29.6031746 C135.87619,30.0634921 136.133333,30.268254 136.721429,30.268254 L136.721429,32.3698413 L136.184127,32.3698413 L136.184127,32.3698413 Z" id="Fill-8"></path>
    <polyline id="Fill-9" points="147.330159 32.1642857 147.330159 24.7349206 141.515873 24.7349206 141.515873 32.1642857 138.798413 32.1642857 138.798413 15.1007937 141.515873 15.1007937 141.515873 22.3261905 147.330159 22.3261905 147.330159 15.1007937 150.047619 15.1007937 150.047619 32.1642857 147.330159 32.1642857"></polyline>
    <path d="M161.270635,20.0198413 C161.270635,18.2777778 160.4,17.0484127 158.477778,17.0484127 C156.580952,17.0484127 155.711111,18.2777778 155.711111,20.0198413 L155.711111,27.2452381 C155.711111,28.9880952 156.580952,30.218254 158.477778,30.218254 C160.4,30.218254 161.270635,28.9880952 161.270635,27.2452381 L161.270635,20.0198413 Z M158.477778,32.6007937 C154.659524,32.6007937 152.970635,30.218254 152.970635,27.065873 L152.970635,20.1992063 C152.970635,17.0738095 154.659524,14.6912698 158.477778,14.6912698 C162.321429,14.6912698 163.985714,17.0738095 163.985714,20.1992063 L163.985714,27.065873 C163.985714,30.218254 162.321429,32.6007937 158.477778,32.6007937 L158.477778,32.6007937 Z" id="Fill-10"></path>
    <path d="M174.953175,20.0198413 C174.953175,18.2777778 174.08254,17.0484127 172.160317,17.0484127 C170.264286,17.0484127 169.393651,18.2777778 169.393651,20.0198413 L169.393651,27.2452381 C169.393651,28.9880952 170.264286,30.218254 172.160317,30.218254 C174.08254,30.218254 174.953175,28.9880952 174.953175,27.2452381 L174.953175,20.0198413 Z M172.160317,32.6007937 C168.342857,32.6007937 166.653175,30.218254 166.653175,27.065873 L166.653175,20.1992063 C166.653175,17.0738095 168.342857,14.6912698 172.160317,14.6912698 C176.003968,14.6912698 177.669048,17.0738095 177.669048,20.1992063 L177.669048,27.065873 C177.669048,30.218254 176.003968,32.6007937 172.160317,32.6007937 L172.160317,32.6007937 Z" id="Fill-11"></path>
    <path d="M188.738889,20.4047619 C188.738889,18.6111111 187.86746,17.5349206 185.946032,17.5349206 L183.307143,17.5349206 L183.307143,29.7309524 L185.946032,29.7309524 C187.86746,29.7309524 188.738889,28.6547619 188.738889,26.8873016 L188.738889,20.4047619 Z M186.17619,32.1642857 L180.59127,32.1642857 L180.59127,15.1007937 L186.17619,15.1007937 C189.814286,15.1007937 191.454762,17.3555556 191.454762,20.1230159 L191.454762,27.1428571 C191.454762,29.9095238 189.814286,32.1642857 186.17619,32.1642857 L186.17619,32.1642857 Z" id="Fill-12"></path>
    <path d="M42.1706349,50 C39.4968254,50 38.3119048,48.2047619 38.3119048,46.2674603 L38.3119048,41.1706349 C38.3119048,39.2333333 39.4968254,37.4563492 42.1706349,37.4563492 C44.8619048,37.4563492 45.9571429,39.0357143 45.9571429,40.9555556 L45.9571429,41.9238095 L44.234127,41.9238095 L44.234127,41.0809524 C44.234127,39.8611111 43.5698413,39.1063492 42.2238095,39.1063492 C40.8785714,39.1063492 40.2142857,39.8968254 40.2142857,40.9912698 L40.2142857,46.4650794 C40.2142857,47.5412698 40.8785714,48.3301587 42.2238095,48.3301587 C43.5698413,48.3301587 44.234127,47.5769841 44.234127,46.3571429 L44.234127,45.5126984 L45.9571429,45.5126984 L45.9571429,46.481746 C45.9571429,48.402381 44.8619048,50 42.1706349,50" id="Fill-13"></path>
    <path d="M53.3277778,41.1888889 C53.3277778,39.968254 52.7174603,39.1063492 51.3714286,39.1063492 C50.0436508,39.1063492 49.434127,39.968254 49.434127,41.1888889 L49.434127,46.2492063 C49.434127,47.4690476 50.0436508,48.3301587 51.3714286,48.3301587 C52.7174603,48.3301587 53.3277778,47.4690476 53.3277778,46.2492063 L53.3277778,41.1888889 Z M51.3714286,50 C48.697619,50 47.5134921,48.3301587 47.5134921,46.1238095 L47.5134921,41.3142857 C47.5134921,39.1253968 48.697619,37.4563492 51.3714286,37.4563492 C54.0634921,37.4563492 55.2301587,39.1253968 55.2301587,41.3142857 L55.2301587,46.1238095 C55.2301587,48.3301587 54.0634921,50 51.3714286,50 L51.3714286,50 Z" id="Fill-14"></path>
    <path d="M60.3214286,40.3277778 L59.1912698,45.0293651 L61.4880952,45.0293651 L60.3214286,40.3277778 Z M62.6539683,49.6944444 L61.8833333,46.6071429 L58.8142857,46.6071429 L58.0793651,49.6944444 L56.2126984,49.6944444 L59.3714286,37.7436508 L61.3809524,37.7436508 L64.5746032,49.6944444 L62.6539683,49.6944444 L62.6539683,49.6944444 Z" id="Fill-15"></path>
    <polyline id="Fill-16" points="65.8087302 49.6944444 65.8087302 37.7436508 67.7111111 37.7436508 67.7111111 47.9904762 72.1611111 47.9904762 72.1611111 49.6944444 65.8087302 49.6944444"></polyline>
    <polygon id="Fill-17" points="73.5396825 49.6944444 75.4420635 49.6944444 75.4420635 37.7436508 73.5396825 37.7436508"></polygon>
    <polyline id="Fill-18" points="81.5952381 39.465873 81.5952381 49.6944444 79.6928571 49.6944444 79.6928571 39.465873 76.7857143 39.465873 76.7857143 37.7436508 84.5031746 37.7436508 84.5031746 39.465873 81.5952381 39.465873"></polyline>
    <polygon id="Fill-19" points="85.8444444 49.6944444 87.747619 49.6944444 87.747619 37.7436508 85.8444444 37.7436508"></polygon>
    <path d="M95.6063492,41.1888889 C95.6063492,39.968254 94.9960317,39.1063492 93.6492063,39.1063492 C92.3214286,39.1063492 91.7119048,39.968254 91.7119048,41.1888889 L91.7119048,46.2492063 C91.7119048,47.4690476 92.3214286,48.3301587 93.6492063,48.3301587 C94.9960317,48.3301587 95.6063492,47.4690476 95.6063492,46.2492063 L95.6063492,41.1888889 Z M93.6492063,50 C90.9761905,50 89.7912698,48.3301587 89.7912698,46.1238095 L89.7912698,41.3142857 C89.7912698,39.1253968 90.9761905,37.4563492 93.6492063,37.4563492 C96.3412698,37.4563492 97.5079365,39.1253968 97.5079365,41.3142857 L97.5079365,46.1238095 C97.5079365,48.3301587 96.3412698,50 93.6492063,50 L93.6492063,50 Z" id="Fill-20"></path>
    <polyline id="Fill-21" points="105.99127 49.6944444 102.564286 43.9880952 101.344444 41.7984127 101.344444 49.6944444 99.5492063 49.6944444 99.5492063 37.7436508 101.020635 37.7436508 104.359524 43.5571429 105.524603 45.7460317 105.524603 37.7436508 107.319841 37.7436508 107.319841 49.6944444 105.99127 49.6944444"></polyline>
    <path d="M115.065873,42.7857143 L115.065873,49.6944444 L113.342857,49.6944444 L113.342857,42.7857143 L112.212698,42.7857143 L112.212698,41.4031746 L113.342857,41.4031746 L113.342857,40.7039683 C113.342857,38.9087302 114.185714,37.7436508 115.837302,37.7436508 L116.59127,37.7436508 L116.59127,39.1253968 L116.105556,39.1253968 C115.263492,39.1253968 114.97619,39.6452381 114.97619,40.4714286 L114.97619,41.4031746 L116.430159,41.4031746 L116.430159,42.7857143 L115.065873,42.7857143" id="Fill-22"></path>
    <path d="M121.918254,43.9333333 C121.918254,43.0904762 121.433333,42.4984127 120.553968,42.4984127 C119.657143,42.4984127 119.172222,43.0904762 119.172222,43.9333333 L119.172222,47.0388889 C119.172222,47.9007937 119.657143,48.4746032 120.553968,48.4746032 C121.433333,48.4746032 121.918254,47.9007937 121.918254,47.0388889 L121.918254,43.9333333 Z M120.553968,49.8380952 C118.651587,49.8380952 117.503175,48.6714286 117.503175,46.752381 L117.503175,44.2396825 C117.503175,42.3373016 118.651587,41.1349206 120.553968,41.1349206 C122.438095,41.1349206 123.586508,42.3373016 123.586508,44.2396825 L123.586508,46.752381 C123.586508,48.6714286 122.438095,49.8380952 120.553968,49.8380952 L120.553968,49.8380952 Z" id="Fill-23"></path>
    <path d="M127.136508,43.9706349 L127.136508,49.6944444 L125.413492,49.6944444 L125.413492,41.2968254 L126.814286,41.2968254 L126.957143,43.0007937 C127.45873,41.368254 128.320635,40.9730159 129.612698,41.2428571 L129.612698,42.8928571 C127.78254,42.6246032 127.136508,43.1619048 127.136508,43.9706349" id="Fill-24"></path>
    <path d="M136.715079,50 C134.454762,50 132.946825,48.5642857 132.946825,46.6444444 L132.946825,46.0698413 L134.831746,46.0698413 L134.831746,46.2674603 C134.831746,47.7031746 135.495238,48.384127 136.769048,48.384127 C137.971429,48.384127 138.6,47.665873 138.6,46.6611111 C138.6,45.6563492 138.115079,45.1357143 136.321429,44.3103175 C134.72381,43.5753968 133.10873,42.6246032 133.10873,40.7222222 C133.10873,38.9277778 134.418254,37.4563492 136.698413,37.4563492 C138.959524,37.4563492 140.411905,38.8738095 140.411905,40.8119048 L140.411905,41.2785714 L138.581746,41.2785714 L138.581746,41.0809524 C138.581746,39.9865079 138.025397,39.052381 136.643651,39.052381 C135.549206,39.052381 135.011111,39.6992063 135.011111,40.5420635 C135.011111,41.4936508 135.513492,41.9238095 137.559524,42.9119048 C139.65873,43.9166667 140.519841,44.8134921 140.519841,46.4468254 C140.519841,48.4563492 138.994444,50 136.715079,50" id="Fill-25"></path>
    <polyline id="Fill-26" points="148.234127 49.6944444 148.234127 44.4904762 144.160317 44.4904762 144.160317 49.6944444 142.257937 49.6944444 142.257937 37.7436508 144.160317 37.7436508 144.160317 42.8031746 148.234127 42.8031746 148.234127 37.7436508 150.135714 37.7436508 150.135714 49.6944444 148.234127 49.6944444"></polyline>
    <polyline id="Fill-27" points="152.356349 49.6944444 152.356349 37.7436508 158.816667 37.7436508 158.816667 39.447619 154.25873 39.447619 154.25873 42.5880952 157.54127 42.5880952 157.54127 44.2039683 154.25873 44.2039683 154.25873 47.9904762 158.816667 47.9904762 158.816667 49.6944444 152.356349 49.6944444"></polyline>
    <polyline id="Fill-28" points="160.518254 49.6944444 160.518254 37.7436508 162.419841 37.7436508 162.419841 47.9904762 166.869841 47.9904762 166.869841 49.6944444 160.518254 49.6944444"></polyline>
    <polyline id="Fill-29" points="172.179365 39.465873 172.179365 49.6944444 170.27619 49.6944444 170.27619 39.465873 167.369048 39.465873 167.369048 37.7436508 175.086508 37.7436508 175.086508 39.465873 172.179365 39.465873"></polyline>
    <polyline id="Fill-30" points="176.427778 49.6944444 176.427778 37.7436508 182.888095 37.7436508 182.888095 39.447619 178.330159 39.447619 178.330159 42.5880952 181.612698 42.5880952 181.612698 44.2039683 178.330159 44.2039683 178.330159 47.9904762 182.888095 47.9904762 182.888095 49.6944444 176.427778 49.6944444"></polyline>
    <path d="M189.901587,40.6690476 C189.901587,39.9142857 189.596032,39.3396825 188.609524,39.3396825 L186.492063,39.3396825 L186.492063,43.1444444 L188.411905,43.1444444 C189.380952,43.1444444 189.901587,42.6246032 189.901587,41.6007937 L189.901587,40.6690476 Z M192.090476,49.8380952 C190.511111,49.8380952 189.973016,49.4071429 189.973016,48.0428571 L189.973016,46.0873016 C189.973016,45.1547619 189.560317,44.5261905 188.537302,44.5261905 L186.492063,44.5261905 L186.492063,49.6944444 L184.589683,49.6944444 L184.589683,37.7436508 L188.609524,37.7436508 C190.960317,37.7436508 191.822222,38.9087302 191.822222,40.6857143 L191.822222,41.4936508 C191.822222,42.8222222 191.336508,43.5753968 189.99127,43.8087302 C191.319048,43.952381 191.874603,45.0293651 191.874603,46.0698413 L191.874603,47.9007937 C191.874603,48.2230159 192.054762,48.3666667 192.466667,48.3666667 L192.466667,49.8380952 L192.090476,49.8380952 L192.090476,49.8380952 Z" id="Fill-31"></path>
    <path d="M4.02301587,45.7309524 L30.0809524,45.7309524 L30.0809524,16.6865079 L17.0507937,5.33571429 L4.02301587,16.6865079 L4.02301587,45.7309524 Z M34.1031746,49.7539683 L0,49.7539683 L0,14.8571429 L17.0507937,0 L34.1031746,14.8571429 L34.1031746,49.7539683 L34.1031746,49.7539683 Z" id="Fill-33"></path>
    </g>
    </g>
</svg>
